<svg width="32" height="32" viewBox="0 0 32 32" fill="none" xmlns="http://www.w3.org/2000/svg">
  <circle cx="16" cy="16" r="16" fill="#F3BA2F"/>
  <path d="M16 7L12.5 10.5L14.5 12.5L16 11L17.5 12.5L19.5 10.5L16 7Z" fill="white"/>
  <path d="M21 12L19 14L21 16L23 14L21 12Z" fill="white"/>
  <path d="M16 13L14 15L16 17L18 15L16 13Z" fill="white"/>
  <path d="M11 12L9 14L11 16L13 14L11 12Z" fill="white"/>
  <path d="M16 19L14.5 17.5L12.5 19.5L16 23L19.5 19.5L17.5 17.5L16 19Z" fill="white"/>
</svg>
